<svg width="1280" height="820" viewBox="0 0 1280 820" fill="none" xmlns="http://www.w3.org/2000/svg">
  <rect width="1280" height="820" rx="40" fill="#F8FBFF"/>
  <circle cx="1092" cy="148" r="98" fill="#E0F2FE"/>
  <circle cx="214" cy="702" r="120" fill="#DBEAFE"/>
  <rect x="154" y="138" width="972" height="540" rx="38" fill="#FFFFFF" stroke="#D8E8F7" stroke-width="2"/>
  <rect x="244" y="246" width="238" height="156" rx="28" fill="#FFFFFF" stroke="#BFDBFE" stroke-width="2"/>
  <rect x="522" y="196" width="236" height="256" rx="28" fill="#0F172A"/>
  <rect x="804" y="246" width="238" height="156" rx="28" fill="#FFFFFF" stroke="#C7D2FE" stroke-width="2"/>
  <rect x="568" y="246" width="144" height="112" rx="22" fill="#0EA5E9"/>
  <text x="584" y="310" fill="#FFFFFF" font-family="Arial, sans-serif" font-size="34" font-weight="700">Horizon</text>
  <text x="278" y="454" fill="#0F172A" font-family="Arial, sans-serif" font-size="30" font-weight="700">Sensors</text>
  <text x="836" y="454" fill="#0F172A" font-family="Arial, sans-serif" font-size="30" font-weight="700">Services</text>
  <path d="M482 324H522" stroke="#38BDF8" stroke-width="6" stroke-linecap="round"/>
  <path d="M758 324H804" stroke="#A78BFA" stroke-width="6" stroke-linecap="round"/>
  <circle cx="482" cy="324" r="10" fill="#38BDF8"/>
  <circle cx="804" cy="324" r="10" fill="#A78BFA"/>
  <rect x="288" y="274" width="34" height="34" rx="10" fill="#0EA5E9"/>
  <rect x="334" y="274" width="34" height="34" rx="10" fill="#22C55E"/>
  <rect x="380" y="274" width="34" height="34" rx="10" fill="#A78BFA"/>
  <rect x="850" y="274" width="144" height="20" rx="10" fill="#DBEAFE"/>
  <rect x="850" y="312" width="124" height="16" rx="8" fill="#E2E8F0"/>
  <rect x="850" y="340" width="138" height="16" rx="8" fill="#E2E8F0"/>
  <text x="314" y="620" fill="#0F172A" font-family="Arial, sans-serif" font-size="38" font-weight="700">Platform  +  Sensors  +  Services</text>
</svg>
