<svg xmlns="http://www.w3.org/2000/svg" width="1600" height="900" viewBox="0 0 1600 900" fill="none">
  <rect width="1600" height="900" fill="#F6FAFF"/>
  <rect x="94" y="86" width="1412" height="728" rx="42" fill="url(#paint0_linear)"/>
  <circle cx="312" cy="264" r="128" fill="#D8ECFF"/>
  <circle cx="1310" cy="684" r="164" fill="#DDEBFF"/>
  <rect x="192" y="196" width="1216" height="508" rx="34" fill="#0F2745"/>
  <rect x="242" y="244" width="520" height="30" rx="15" fill="#C8E2FF"/>
  <rect x="242" y="298" width="386" height="16" rx="8" fill="#7DB5F5"/>
  <rect x="242" y="340" width="462" height="16" rx="8" fill="#5A93D7"/>
  <rect x="242" y="414" width="226" height="186" rx="24" fill="#153C67"/>
  <rect x="494" y="414" width="226" height="186" rx="24" fill="#163F6D"/>
  <rect x="746" y="414" width="414" height="186" rx="24" fill="#1A4B81"/>
  <rect x="1186" y="414" width="134" height="186" rx="24" fill="#205A98"/>
  <path d="M856 512C912 450.667 968 450.667 1024 512C1080 573.333 1136 573.333 1192 512" stroke="#A4D0FF" stroke-width="18" stroke-linecap="round"/>
  <circle cx="912" cy="512" r="18" fill="#EAF5FF"/>
  <circle cx="1024" cy="512" r="18" fill="#EAF5FF"/>
  <circle cx="1136" cy="512" r="18" fill="#EAF5FF"/>
  <rect x="828" y="278" width="352" height="88" rx="24" fill="#153A64"/>
  <rect x="860" y="306" width="170" height="16" rx="8" fill="#D4E9FF"/>
  <rect x="860" y="334" width="250" height="12" rx="6" fill="#78B3F1"/>
  <rect x="1208" y="278" width="120" height="88" rx="24" fill="#1D578F"/>
  <path d="M1268 306V338" stroke="#EAF5FF" stroke-width="12" stroke-linecap="round"/>
  <path d="M1252 322H1284" stroke="#EAF5FF" stroke-width="12" stroke-linecap="round"/>
  <defs>
    <linearGradient id="paint0_linear" x1="94" y1="86" x2="1506" y2="814" gradientUnits="userSpaceOnUse">
      <stop stop-color="#F9FCFF"/>
      <stop offset="1" stop-color="#EEF5FF"/>
    </linearGradient>
  </defs>
</svg>
