<svg xmlns="http://www.w3.org/2000/svg" width="1600" height="900" viewBox="0 0 1600 900" fill="none">
  <rect width="1600" height="900" fill="#F6FAFE"/>
  <rect x="114" y="98" width="1372" height="704" rx="40" fill="#EFF6FF"/>
  <rect x="232" y="210" width="400" height="470" rx="34" fill="#123150"/>
  <rect x="276" y="260" width="188" height="188" rx="94" fill="#1C4D81"/>
  <circle cx="370" cy="354" r="48" fill="#D8ECFF"/>
  <path d="M370 316V392" stroke="#D8ECFF" stroke-width="24" stroke-linecap="round"/>
  <path d="M332 354H408" stroke="#D8ECFF" stroke-width="24" stroke-linecap="round"/>
  <rect x="276" y="500" width="182" height="16" rx="8" fill="#DBEEFF"/>
  <rect x="276" y="536" width="266" height="12" rx="6" fill="#89BDEF"/>
  <rect x="706" y="240" width="640" height="292" rx="34" fill="#FFFFFF"/>
  <rect x="760" y="304" width="244" height="18" rx="9" fill="#173E69"/>
  <rect x="760" y="344" width="478" height="12" rx="6" fill="#82B4E7"/>
  <rect x="760" y="378" width="428" height="12" rx="6" fill="#B0D1F7"/>
  <rect x="760" y="426" width="194" height="54" rx="18" fill="#1B5DA5"/>
  <rect x="706" y="576" width="640" height="122" rx="34" fill="#DCEBFA"/>
  <path d="M884 637C938.667 591 993.333 591 1048 637C1102.67 683 1157.33 683 1212 637" stroke="#1E5C97" stroke-width="18" stroke-linecap="round"/>
  <path d="M650 638C686.667 596.667 723.333 596.667 760 638" stroke="#8ABEF2" stroke-width="18" stroke-linecap="round"/>
  <circle cx="1004" cy="637" r="18" fill="#1E5C97"/>
  <circle cx="1128" cy="637" r="18" fill="#1E5C97"/>
</svg>
