<svg width="1280" height="820" viewBox="0 0 1280 820" fill="none" xmlns="http://www.w3.org/2000/svg">
  <rect width="1280" height="820" rx="40" fill="#F8FBFF"/>
  <circle cx="272" cy="176" r="96" fill="#E0F2FE"/>
  <circle cx="1070" cy="660" r="120" fill="#DCFCE7"/>
  <rect x="176" y="150" width="928" height="520" rx="40" fill="#FFFFFF" stroke="#D8E8F7" stroke-width="2"/>
  <circle cx="336" cy="334" r="26" fill="#0EA5E9"/>
  <circle cx="642" cy="264" r="26" fill="#22C55E"/>
  <circle cx="924" cy="408" r="26" fill="#A78BFA"/>
  <circle cx="780" cy="560" r="26" fill="#F59E0B"/>
  <path d="M362 330C442 282 532 256 616 264" stroke="#38BDF8" stroke-width="6" stroke-linecap="round"/>
  <path d="M668 272C756 284 844 334 900 392" stroke="#22C55E" stroke-width="6" stroke-linecap="round"/>
  <path d="M904 430C882 474 842 516 804 542" stroke="#A78BFA" stroke-width="6" stroke-linecap="round"/>
  <path d="M756 548C628 572 496 538 382 432" stroke="#F59E0B" stroke-width="6" stroke-linecap="round"/>
  <rect x="528" y="470" width="188" height="110" rx="26" fill="#0F172A"/>
  <rect x="552" y="492" width="140" height="24" rx="12" fill="#0EA5E9"/>
  <rect x="552" y="534" width="116" height="18" rx="9" fill="#DBEAFE"/>
  <text x="262" y="620" fill="#0F172A" font-family="Arial, sans-serif" font-size="36" font-weight="700">Expanded delivery and routing coordination</text>
</svg>
