<svg width="1280" height="820" viewBox="0 0 1280 820" fill="none" xmlns="http://www.w3.org/2000/svg">
  <rect width="1280" height="820" rx="40" fill="#F8FBFF"/>
  <circle cx="1090" cy="154" r="102" fill="#E0F2FE"/>
  <circle cx="238" cy="690" r="122" fill="#DBEAFE"/>
  <rect x="158" y="150" width="964" height="520" rx="40" fill="#FFFFFF" stroke="#D8E8F7" stroke-width="2"/>
  <rect x="226" y="216" width="364" height="320" rx="28" fill="#F8FAFC" stroke="#D8E8F7" stroke-width="2"/>
  <rect x="268" y="262" width="280" height="24" rx="12" fill="#0EA5E9" fill-opacity="0.22"/>
  <rect x="268" y="308" width="228" height="18" rx="9" fill="#DBEAFE"/>
  <rect x="268" y="340" width="250" height="18" rx="9" fill="#E2E8F0"/>
  <rect x="268" y="372" width="204" height="18" rx="9" fill="#E2E8F0"/>
  <rect x="268" y="420" width="236" height="72" rx="20" fill="#E0F2FE"/>
  <rect x="658" y="216" width="396" height="320" rx="28" fill="#0F172A"/>
  <rect x="694" y="252" width="324" height="164" rx="22" fill="#0EA5E9"/>
  <rect x="720" y="444" width="116" height="18" rx="9" fill="#DBEAFE"/>
  <rect x="720" y="474" width="92" height="18" rx="9" fill="#DBEAFE"/>
  <text x="314" y="612" fill="#0F172A" font-family="Arial, sans-serif" font-size="34" font-weight="700">Editorial layout sample</text>
  <text x="314" y="654" fill="#475569" font-family="Arial, sans-serif" font-size="22">headings, images, notes, tables, and mixed content</text>
</svg>
