<svg width="1280" height="820" viewBox="0 0 1280 820" fill="none" xmlns="http://www.w3.org/2000/svg">
  <rect width="1280" height="820" rx="40" fill="#F8FBFF"/>
  <circle cx="1038" cy="170" r="104" fill="#E0F2FE"/>
  <circle cx="258" cy="694" r="126" fill="#DBEAFE"/>
  <rect x="152" y="152" width="976" height="514" rx="40" fill="#FFFFFF" stroke="#D8E8F7" stroke-width="2"/>
  <rect x="252" y="402" width="776" height="92" rx="28" fill="#CBD5E1"/>
  <rect x="598" y="324" width="246" height="82" rx="24" fill="#0EA5E9"/>
  <rect x="566" y="330" width="44" height="70" rx="18" fill="#94A3B8"/>
  <circle cx="412" cy="526" r="36" fill="#0F172A"/>
  <circle cx="854" cy="526" r="36" fill="#0F172A"/>
  <rect x="300" y="294" width="184" height="104" rx="22" fill="#FFFFFF" stroke="#BFDBFE" stroke-width="2"/>
  <rect x="330" y="324" width="124" height="18" rx="9" fill="#DBEAFE"/>
  <rect x="330" y="356" width="94" height="16" rx="8" fill="#E2E8F0"/>
  <path d="M484 346H566" stroke="#38BDF8" stroke-width="6" stroke-linecap="round"/>
  <path d="M844 346H944" stroke="#22C55E" stroke-width="6" stroke-linecap="round"/>
  <circle cx="944" cy="346" r="16" fill="#22C55E"/>
  <circle cx="944" cy="346" r="7" fill="#FFFFFF"/>
  <text x="306" y="620" fill="#0F172A" font-family="Arial, sans-serif" font-size="36" font-weight="700">Pilot shipment moved into field integration</text>
</svg>
