<svg width="88" height="88" viewBox="0 0 88 88" fill="none" xmlns="http://www.w3.org/2000/svg">
  <rect x="2" y="2" width="84" height="84" rx="24" fill="#ECFDF5"/>
  <rect x="2" y="2" width="84" height="84" rx="24" stroke="#BBF7D0" stroke-width="2"/>
  <circle cx="44" cy="38" r="18" fill="#DCFCE7"/>
  <path d="M30 63L33.8 52.6C31.7 49.4 30.5 45.6 30.5 41.5C30.5 30.5 39.3 21.5 50.2 21.5C61 21.5 69.8 30.5 69.8 41.5C69.8 52.5 61 61.5 50.2 61.5C46.4 61.5 42.8 60.4 39.8 58.4L30 63Z" fill="#22C55E" stroke="#15803D" stroke-width="2.4" stroke-linejoin="round"/>
  <path d="M56.3 47.8C55.5 48.8 54.6 49.4 53.5 49.5C52.7 49.5 51.7 49.2 50.5 48.7C49.1 48 47.5 46.8 45.7 45C43.9 43.2 42.7 41.6 42 40.2C41.4 39 41.1 38 41.2 37.2C41.3 36.1 41.8 35.2 42.9 34.4L44.9 33C45.3 32.7 45.8 32.7 46.2 32.9C46.7 33.1 47 33.5 47.2 34L48.8 38C49 38.5 48.9 39.1 48.5 39.5L47.4 40.8C47.1 41.2 47 41.7 47.2 42.1C47.6 43 48.4 44 49.6 45.2C50.8 46.4 51.8 47.2 52.7 47.6C53.1 47.8 53.6 47.7 54 47.4L55.2 46.3C55.7 45.9 56.2 45.8 56.8 46L60.7 47.6C61.2 47.8 61.6 48.1 61.8 48.6C62 49 62 49.5 61.7 49.9L60.3 51.9C59.1 53.4 57.8 53.2 56.3 47.8Z" fill="white"/>
</svg>
