<?xml version="1.0" standalone="no"?><!DOCTYPE svg PUBLIC "-//W3C//DTD SVG 1.1//EN" "http://www.w3.org/Graphics/SVG/1.1/DTD/svg11.dtd"><svg t="1773836798400" class="icon" viewBox="0 0 1024 1024" version="1.1" xmlns="http://www.w3.org/2000/svg" p-id="9068" xmlns:xlink="http://www.w3.org/1999/xlink" width="200" height="200"><path d="M501.76 781.653333c10.24 0 17.066667-10.24 13.653333-20.48-3.413333-20.48-6.826667-44.373333-10.24-68.266666 0-10.24-10.24-17.066667-20.48-13.653334-10.24 0-17.066667 10.24-13.653333 20.48 3.413333 23.893333 6.826667 44.373333 10.24 68.266667 0 10.24 6.826667 13.653333 20.48 13.653333-3.413333 0-3.413333 0 0 0zM348.16 395.946667c-20.48-6.826667-44.373333-13.653333-68.266667-17.066667-10.24 0-17.066667 6.826667-20.48 13.653333 0 10.24 6.826667 17.066667 13.653334 20.48 23.893333 3.413333 44.373333 6.826667 61.44 13.653334h6.826666c6.826667 0 13.653333-3.413333 17.066667-10.24 3.413333-6.826667 0-17.066667-10.24-20.48zM457.386667 491.52c-13.653333-23.893333-27.306667-40.96-44.373334-58.026667-6.826667-6.826667-17.066667-6.826667-23.893333 0-6.826667 6.826667-6.826667 17.066667 0 23.893334 13.653333 13.653333 27.306667 30.72 37.546667 47.786666 3.413333 6.826667 10.24 10.24 13.653333 10.24 3.413333 0 6.826667 0 6.826667-3.413333 10.24-3.413333 13.653333-13.653333 10.24-20.48zM481.28 645.12c10.24 0 17.066667-10.24 13.653333-20.48-3.413333-27.306667-10.24-47.786667-13.653333-68.266667-3.413333-10.24-10.24-13.653333-20.48-13.653333-10.24 3.413333-13.653333 10.24-13.653333 20.48 3.413333 17.066667 10.24 40.96 13.653333 64.853333 3.413333 13.653333 10.24 20.48 20.48 17.066667 0 3.413333 0 0 0 0zM529.066667 829.44c-3.413333-10.24-10.24-13.653333-20.48-10.24-10.24 3.413333-13.653333 10.24-10.24 20.48 6.826667 27.306667 17.066667 47.786667 27.306666 68.266667 3.413333 6.826667 10.24 10.24 13.653334 10.24 3.413333 0 6.826667 0 6.826666-3.413334 6.826667-3.413333 10.24-13.653333 6.826667-23.893333-10.24-20.48-17.066667-40.96-23.893333-61.44zM768 989.866667c-23.893333 0-44.373333 0-64.853333-3.413334-10.24 0-17.066667 3.413333-20.48 13.653334 0 10.24 3.413333 17.066667 13.653333 20.48 20.48 3.413333 44.373333 3.413333 71.68 3.413333 10.24 0 17.066667-6.826667 17.066667-17.066667s-6.826667-17.066667-17.066667-17.066666zM641.706667 969.386667c-20.48-6.826667-37.546667-20.48-51.2-34.133334-6.826667-6.826667-17.066667-6.826667-23.893334 0-6.826667 6.826667-6.826667 17.066667 0 23.893334 17.066667 17.066667 37.546667 27.306667 61.44 37.546666h6.826667c6.826667 0 13.653333-3.413333 17.066667-10.24 3.413333-3.413333 0-13.653333-10.24-17.066666zM153.6 0C68.266667 0 0 68.266667 0 153.6c0 78.506667 126.293333 262.826667 139.946667 283.306667 3.413333 3.413333 6.826667 6.826667 13.653333 6.826666s10.24-3.413333 13.653333-6.826666c13.653333-20.48 139.946667-204.8 139.946667-283.306667C307.2 68.266667 238.933333 0 153.6 0z m0 136.533333c10.24 0 17.066667 6.826667 17.066667 17.066667s-6.826667 17.066667-17.066667 17.066667-17.066667-6.826667-17.066667-17.066667 6.826667-17.066667 17.066667-17.066667zM836.266667 409.6c-102.4 0-187.733333 88.746667-187.733334 194.56 0 102.4 167.253333 395.946667 174.08 409.6 3.413333 6.826667 10.24 10.24 13.653334 10.24s10.24-3.413333 13.653333-10.24c6.826667-13.653333 174.08-307.2 174.08-409.6 0-105.813333-85.333333-194.56-187.733333-194.56z m0 136.533333c27.306667 0 51.2 23.893333 51.2 51.2s-23.893333 51.2-51.2 51.2-51.2-23.893333-51.2-51.2 23.893333-51.2 51.2-51.2z" fill="" p-id="9069"></path></svg>