<svg xmlns="http://www.w3.org/2000/svg" viewBox="0 0 88 88" fill="none" role="img" aria-label="Radar cueing icon">
  <rect x="8" y="8" width="72" height="72" rx="22" fill="#ECFFF4" stroke="#A7F3C6" stroke-width="2"/>
  <circle cx="44" cy="44" r="18" fill="#D1FAE5" opacity="0.72"/>
  <circle cx="25.5" cy="52.5" r="3.8" fill="#059669"/>
  <path d="M21 59H30" stroke="#10B981" stroke-width="2.4" stroke-linecap="round"/>
  <path d="M28.5 46.5C31.8 43.1 36.2 40.7 41.1 39.6" stroke="#10B981" stroke-width="2.5" stroke-linecap="round"/>
  <path d="M29.5 41.5C34.4 36.7 40.8 33.5 47.9 32.7" stroke="#34D399" stroke-width="2.3" stroke-linecap="round"/>
  <path d="M31 36C37.1 30.6 44.8 27.4 53.1 27" stroke="#6EE7B7" stroke-width="2.1" stroke-linecap="round"/>
  <path d="M41.5 45L47.5 45" stroke="#059669" stroke-width="2.6" stroke-linecap="round" stroke-dasharray="3.5 4"/>
  <path d="M49 50V42.5C49 38.9101 51.9101 36 55.5 36H61" stroke="#059669" stroke-width="2.6" stroke-linecap="round" stroke-linejoin="round"/>
  <rect x="56" y="31" width="9" height="8" rx="3" fill="white" stroke="#059669" stroke-width="2.2"/>
  <path d="M47.5 45L49 42.5" stroke="#059669" stroke-width="2.6" stroke-linecap="round"/>
</svg>
