<svg width="104" height="104" viewBox="0 0 104 104" fill="none" xmlns="http://www.w3.org/2000/svg">
  <rect x="8" y="8" width="88" height="88" rx="24" fill="#EFF6FF"/>
  <rect x="8" y="8" width="88" height="88" rx="24" stroke="#BFDBFE" stroke-width="2"/>
  <rect x="27" y="58" width="8" height="16" rx="4" fill="#93C5FD"/>
  <rect x="41" y="48" width="8" height="26" rx="4" fill="#60A5FA"/>
  <rect x="55" y="38" width="8" height="36" rx="4" fill="#3B82F6"/>
  <rect x="69" y="28" width="8" height="46" rx="4" fill="#2563EB"/>
  <path d="M24 36C31 31.5 39 29 48 29C57 29 65 31.5 72 36" stroke="#1D4ED8" stroke-width="2.5" stroke-linecap="round"/>
  <path d="M29 45C34.5 41.5 41 39.5 48 39.5C55 39.5 61.5 41.5 67 45" stroke="#60A5FA" stroke-width="2.5" stroke-linecap="round"/>
</svg>
