<svg width="1440" height="900" viewBox="0 0 1440 900" fill="none" xmlns="http://www.w3.org/2000/svg">
  <defs>
    <linearGradient id="bg" x1="132" y1="98" x2="1272" y2="812" gradientUnits="userSpaceOnUse">
      <stop stop-color="#F8FBFF"/>
      <stop offset="1" stop-color="#E9F4FF"/>
    </linearGradient>
    <linearGradient id="panel" x1="230" y1="174" x2="792" y2="636" gradientUnits="userSpaceOnUse">
      <stop stop-color="#FFFFFF"/>
      <stop offset="1" stop-color="#F1F7FF"/>
    </linearGradient>
    <linearGradient id="accent" x1="895" y1="180" x2="1240" y2="555" gradientUnits="userSpaceOnUse">
      <stop stop-color="#E0F2FE"/>
      <stop offset="1" stop-color="#DBEAFE"/>
    </linearGradient>
  </defs>
  <rect width="1440" height="900" rx="48" fill="url(#bg)"/>
  <circle cx="1178" cy="165" r="112" fill="#D9F0FF"/>
  <circle cx="253" cy="773" r="132" fill="#E4F3FF"/>
  <rect x="118" y="130" width="760" height="600" rx="42" fill="url(#panel)" stroke="#BFDBFE" stroke-width="2"/>
  <rect x="166" y="176" width="664" height="72" rx="24" fill="#E8F3FF"/>
  <rect x="190" y="201" width="132" height="22" rx="11" fill="#7DD3FC"/>
  <rect x="338" y="201" width="102" height="22" rx="11" fill="#D6EAFE"/>
  <rect x="456" y="201" width="96" height="22" rx="11" fill="#D6EAFE"/>
  <rect x="166" y="282" width="268" height="192" rx="28" fill="#FFFFFF" stroke="#D8E8F7" stroke-width="2"/>
  <rect x="166" y="508" width="268" height="172" rx="28" fill="#FFFFFF" stroke="#D8E8F7" stroke-width="2"/>
  <rect x="462" y="282" width="320" height="136" rx="28" fill="#FFFFFF" stroke="#D8E8F7" stroke-width="2"/>
  <rect x="462" y="444" width="320" height="236" rx="28" fill="#FFFFFF" stroke="#D8E8F7" stroke-width="2"/>
  <rect x="194" y="312" width="210" height="18" rx="9" fill="#0EA5E9" fill-opacity="0.2"/>
  <rect x="194" y="348" width="172" height="16" rx="8" fill="#94A3B8" fill-opacity="0.24"/>
  <rect x="194" y="378" width="120" height="16" rx="8" fill="#94A3B8" fill-opacity="0.24"/>
  <rect x="194" y="416" width="182" height="28" rx="14" fill="#0EA5E9"/>
  <rect x="194" y="538" width="148" height="18" rx="9" fill="#22C55E" fill-opacity="0.22"/>
  <rect x="194" y="572" width="204" height="16" rx="8" fill="#94A3B8" fill-opacity="0.24"/>
  <rect x="194" y="602" width="176" height="16" rx="8" fill="#94A3B8" fill-opacity="0.24"/>
  <rect x="194" y="634" width="124" height="18" rx="9" fill="#E0F2FE"/>
  <rect x="490" y="312" width="244" height="18" rx="9" fill="#6366F1" fill-opacity="0.2"/>
  <rect x="490" y="348" width="212" height="16" rx="8" fill="#94A3B8" fill-opacity="0.24"/>
  <rect x="490" y="378" width="170" height="16" rx="8" fill="#94A3B8" fill-opacity="0.24"/>
  <rect x="490" y="474" width="264" height="24" rx="12" fill="#DBEAFE"/>
  <rect x="490" y="518" width="136" height="92" rx="20" fill="#E0F2FE"/>
  <rect x="642" y="518" width="112" height="92" rx="20" fill="#DCFCE7"/>
  <rect x="490" y="626" width="264" height="28" rx="14" fill="#FEE2E2"/>
  <rect x="920" y="172" width="382" height="556" rx="42" fill="url(#accent)" stroke="#C7D2FE" stroke-width="2"/>
  <path d="M1008 318H1132" stroke="#38BDF8" stroke-width="8" stroke-linecap="round"/>
  <path d="M1008 586H1132" stroke="#FB7185" stroke-width="8" stroke-linecap="round"/>
  <path d="M1150 350V554" stroke="#94A3B8" stroke-width="6" stroke-linecap="round" stroke-dasharray="10 12"/>
  <rect x="978" y="250" width="240" height="144" rx="28" fill="#FFFFFF" stroke="#BFDBFE" stroke-width="2"/>
  <rect x="978" y="512" width="240" height="144" rx="28" fill="#FFFFFF" stroke="#FBCFE8" stroke-width="2"/>
  <rect x="1062" y="420" width="178" height="70" rx="24" fill="#0F172A"/>
  <rect x="1076" y="434" width="150" height="42" rx="18" fill="#0EA5E9"/>
  <text x="1098" y="461" fill="#FFFFFF" font-family="Arial, sans-serif" font-size="22" font-weight="700">Horizon</text>
  <text x="1036" y="312" fill="#0F172A" font-family="Arial, sans-serif" font-size="30" font-weight="700">Customized UI</text>
  <text x="1052" y="348" fill="#475569" font-family="Arial, sans-serif" font-size="22">roles, alerts, workflow, maps</text>
  <text x="1038" y="576" fill="#0F172A" font-family="Arial, sans-serif" font-size="30" font-weight="700">C4R Coordination</text>
  <text x="1048" y="612" fill="#475569" font-family="Arial, sans-serif" font-size="22">task state, alerts, data exchange</text>
  <circle cx="1150" cy="350" r="10" fill="#38BDF8"/>
  <circle cx="1150" cy="452" r="10" fill="#0EA5E9"/>
  <circle cx="1150" cy="554" r="10" fill="#FB7185"/>
</svg>
