<svg width="1280" height="820" viewBox="0 0 1280 820" fill="none" xmlns="http://www.w3.org/2000/svg">
  <rect width="1280" height="820" rx="40" fill="#F8FBFF"/>
  <rect x="92" y="96" width="1096" height="628" rx="36" fill="#EEF7E8" stroke="#D8E8F7" stroke-width="2"/>
  <rect x="184" y="182" width="912" height="456" rx="30" fill="none" stroke="#94A3B8" stroke-width="8" stroke-dasharray="18 18"/>
  <rect x="286" y="244" width="186" height="126" rx="24" fill="#FFFFFF" stroke="#D8E8F7" stroke-width="2"/>
  <rect x="522" y="240" width="212" height="152" rx="24" fill="#FFFFFF" stroke="#D8E8F7" stroke-width="2"/>
  <rect x="780" y="274" width="192" height="116" rx="24" fill="#FFFFFF" stroke="#D8E8F7" stroke-width="2"/>
  <rect x="328" y="440" width="232" height="128" rx="24" fill="#FFFFFF" stroke="#D8E8F7" stroke-width="2"/>
  <rect x="626" y="440" width="278" height="146" rx="24" fill="#FFFFFF" stroke="#D8E8F7" stroke-width="2"/>
  <rect x="128" y="412" width="108" height="94" rx="22" fill="#FFFFFF" stroke="#BFDBFE" stroke-width="2"/>
  <rect x="1044" y="412" width="108" height="94" rx="22" fill="#FFFFFF" stroke="#BFDBFE" stroke-width="2"/>
  <circle cx="182" cy="458" r="18" fill="#0EA5E9"/>
  <circle cx="1098" cy="458" r="18" fill="#0EA5E9"/>
  <rect x="176" y="476" width="12" height="38" rx="6" fill="#475569"/>
  <rect x="1092" y="476" width="12" height="38" rx="6" fill="#475569"/>
  <path d="M182 458C294 348 418 302 562 296" stroke="#38BDF8" stroke-width="5" stroke-linecap="round"/>
  <path d="M1098 458C986 348 862 302 718 296" stroke="#38BDF8" stroke-width="5" stroke-linecap="round"/>
  <path d="M148 492C296 342 446 248 664 242" stroke="#7DD3FC" stroke-width="5" stroke-linecap="round" stroke-opacity="0.85"/>
  <path d="M1132 492C984 342 834 248 616 242" stroke="#7DD3FC" stroke-width="5" stroke-linecap="round" stroke-opacity="0.85"/>
  <rect x="982" y="164" width="126" height="116" rx="24" fill="#FFFFFF" stroke="#BFDBFE" stroke-width="2"/>
  <rect x="1004" y="186" width="82" height="22" rx="11" fill="#0EA5E9" fill-opacity="0.22"/>
  <rect x="1004" y="222" width="72" height="18" rx="9" fill="#CBD5E1"/>
  <rect x="1004" y="252" width="92" height="18" rx="9" fill="#CBD5E1"/>
  <text x="128" y="152" fill="#0F172A" font-family="Arial, sans-serif" font-size="30" font-weight="700">Perimeter, roads, and control-room planning</text>
</svg>
