<svg width="1280" height="820" viewBox="0 0 1280 820" fill="none" xmlns="http://www.w3.org/2000/svg">
  <rect width="1280" height="820" rx="40" fill="#F8FBFF"/>
  <rect x="74" y="88" width="1132" height="644" rx="36" fill="#EEF7E8" stroke="#D8E8F7" stroke-width="2"/>
  <rect x="304" y="298" width="672" height="78" rx="26" fill="#CBD5E1"/>
  <rect x="272" y="332" width="736" height="18" rx="9" fill="#E2E8F0"/>
  <rect x="394" y="392" width="492" height="160" rx="24" fill="#94A3B8" fill-opacity="0.16"/>
  <rect x="410" y="408" width="460" height="128" rx="20" fill="#FFFFFF" fill-opacity="0.55"/>
  <rect x="154" y="474" width="100" height="86" rx="22" fill="#FFFFFF" stroke="#BFDBFE" stroke-width="2"/>
  <rect x="1026" y="474" width="100" height="86" rx="22" fill="#FFFFFF" stroke="#BFDBFE" stroke-width="2"/>
  <circle cx="204" cy="518" r="18" fill="#0EA5E9"/>
  <circle cx="1076" cy="518" r="18" fill="#0EA5E9"/>
  <rect x="198" y="536" width="12" height="36" rx="6" fill="#475569"/>
  <rect x="1070" y="536" width="12" height="36" rx="6" fill="#475569"/>
  <path d="M204 518C282 330 440 250 646 250" stroke="#38BDF8" stroke-width="5" stroke-linecap="round"/>
  <path d="M1076 518C998 330 840 250 634 250" stroke="#38BDF8" stroke-width="5" stroke-linecap="round"/>
  <path d="M170 564C264 292 450 176 700 176" stroke="#7DD3FC" stroke-width="5" stroke-linecap="round" stroke-opacity="0.85"/>
  <path d="M1110 564C1016 292 830 176 580 176" stroke="#7DD3FC" stroke-width="5" stroke-linecap="round" stroke-opacity="0.85"/>
  <rect x="536" y="148" width="208" height="94" rx="24" fill="#FFFFFF" stroke="#BFDBFE" stroke-width="2"/>
  <text x="577" y="202" fill="#0F172A" font-family="Arial, sans-serif" font-size="30" font-weight="700">Tower</text>
  <rect x="922" y="148" width="194" height="124" rx="24" fill="#FFFFFF" stroke="#BFDBFE" stroke-width="2"/>
  <rect x="948" y="182" width="142" height="18" rx="9" fill="#0EA5E9" fill-opacity="0.2"/>
  <rect x="948" y="214" width="124" height="16" rx="8" fill="#CBD5E1"/>
  <rect x="948" y="242" width="108" height="16" rx="8" fill="#CBD5E1"/>
  <text x="114" y="162" fill="#0F172A" font-family="Arial, sans-serif" font-size="30" font-weight="700">Runway edge radar sectors</text>
</svg>
