<svg width="900" height="1200" viewBox="0 0 900 1200" fill="none" xmlns="http://www.w3.org/2000/svg">
  <defs>
    <linearGradient id="sdcBase" x1="111" y1="50" x2="780" y2="1116" gradientUnits="userSpaceOnUse">
      <stop stop-color="#F1FFFA"/>
      <stop offset="0.5" stop-color="#DDFBF5"/>
      <stop offset="1" stop-color="#E6F8FF"/>
    </linearGradient>
    <radialGradient id="sdcGlow" cx="0" cy="0" r="1" gradientUnits="userSpaceOnUse" gradientTransform="translate(675 219) rotate(127.66) scale(376.343 420.54)">
      <stop stop-color="#5EEAD4" stop-opacity="0.54"/>
      <stop offset="1" stop-color="#5EEAD4" stop-opacity="0"/>
    </radialGradient>
  </defs>
  <rect width="900" height="1200" fill="url(#sdcBase)"/>
  <rect width="900" height="1200" fill="url(#sdcGlow)"/>
  <path d="M603 0H900V384L477 1200H167L603 0Z" fill="white" fill-opacity="0.44"/>
  <path d="M91 909C195 841 302 803 417 803C535 803 635 837 742 837C793 837 847 830 900 817V1200H91V909Z" fill="#ECFFFA"/>
  <path d="M128 262C212 231 281 216 350 216C428 216 495 253 575 253C646 253 724 224 832 162" stroke="#2DD4BF" stroke-opacity="0.42" stroke-width="5" stroke-linecap="round"/>
  <path d="M128 331C215 301 295 284 373 284C453 284 526 313 604 313C688 313 769 286 863 233" stroke="#5EEAD4" stroke-opacity="0.28" stroke-width="5" stroke-linecap="round"/>
  <path d="M128 402C210 376 287 363 361 363C442 363 520 389 598 389C686 389 773 359 863 310" stroke="#99F6E4" stroke-opacity="0.24" stroke-width="4" stroke-linecap="round"/>
  <rect x="146" y="133" width="26" height="118" rx="13" fill="#CCFBF1" fill-opacity="0.9"/>
  <rect x="186" y="156" width="26" height="95" rx="13" fill="#99F6E4" fill-opacity="0.84"/>
  <rect x="226" y="110" width="26" height="141" rx="13" fill="#5EEAD4" fill-opacity="0.78"/>
  <rect x="266" y="173" width="26" height="78" rx="13" fill="#2DD4BF" fill-opacity="0.7"/>
  <circle cx="719" cy="208" r="84" stroke="#2DD4BF" stroke-opacity="0.22" stroke-width="3"/>
  <circle cx="719" cy="208" r="126" stroke="#5EEAD4" stroke-opacity="0.18" stroke-width="3"/>
  <circle cx="719" cy="208" r="8" fill="#0F766E"/>
  <path d="M718 198V218" stroke="white" stroke-opacity="0.72" stroke-width="3" stroke-linecap="round"/>
  <path d="M708 208H728" stroke="white" stroke-opacity="0.72" stroke-width="3" stroke-linecap="round"/>
</svg>
