<svg xmlns="http://www.w3.org/2000/svg" viewBox="0 0 104 104" fill="none" role="img" aria-label="Cueing chain icon">
  <rect x="8" y="8" width="88" height="88" rx="24" fill="#ECFFF4" stroke="#A7F3C6" stroke-width="2"/>
  <circle cx="29" cy="52" r="9" fill="white" stroke="#059669" stroke-width="2.5"/>
  <rect x="46" y="37" width="18" height="18" rx="6" fill="white" stroke="#10B981" stroke-width="2.5"/>
  <path d="M75 39L82 52L75 65H67L60 52L67 39H75Z" fill="#D1FAE5" stroke="#059669" stroke-width="2.5" stroke-linejoin="round"/>
  <path d="M38 52H46" stroke="#10B981" stroke-width="3" stroke-linecap="round"/>
  <path d="M64 46H69" stroke="#10B981" stroke-width="3" stroke-linecap="round"/>
  <path d="M42 52L46 49V55L42 52Z" fill="#34D399"/>
  <path d="M66 46L69 43V49L66 46Z" fill="#34D399"/>
  <path d="M28 46C32 46 35 48 37 52C35 56 32 58 28 58" stroke="#34D399" stroke-width="2.5" stroke-linecap="round"/>
  <path d="M51 61H59" stroke="#34D399" stroke-width="2.5" stroke-linecap="round"/>
</svg>
