<svg xmlns="http://www.w3.org/2000/svg" viewBox="0 0 88 88" fill="none" role="img" aria-label="Person target icon">
  <rect x="8" y="8" width="72" height="72" rx="22" fill="#ECFBFF" stroke="#97E2F8" stroke-width="2"/>
  <circle cx="44" cy="43" r="18" fill="#BAE6FD" opacity="0.55"/>
  <g transform="translate(13 7) scale(0.062)" fill="#0284C7">
    <path d="M501.333333 149.333333a117.333333 117.333333 0 1 0 0 234.666667 117.333333 117.333333 0 0 0 0-234.666667z m0 64a53.333333 53.333333 0 1 1 0 106.666667 53.333333 53.333333 0 0 1 0-106.666667zM490.986667 405.333333c1.237333 0 2.432 0.064 3.626666 0.213334l2.005334-0.128L501.333333 405.333333a117.333333 117.333333 0 0 1 104.448 63.829334l-1.92-2.197334a64.405333 64.405333 0 0 0 45.525334 23.616l4.437333 0.170667h89.792A32 32 0 0 1 746.666667 554.602667l-3.072 0.149333h-89.792a128.341333 128.341333 0 0 1-35.157334-4.906667V672c0 15.573333-4.757333 29.994667-12.885333 41.962667a260.394667 260.394667 0 0 1 117.674667 139.242666 32 32 0 1 1-60.245334 21.589334 196.586667 196.586667 0 0 0-115.050666-117.376l-5.973334-2.154667-24.96-8.597333h-19.904l-7.68 17.557333-2.645333 5.802667A220.16 220.16 0 0 1 288 896a32 32 0 0 1 0-64 156.16 156.16 0 0 0 140.586667-88.213333l1.322666-2.858667a74.709333 74.709333 0 0 1-45.781333-64.533333L384 672v-149.333333c0-6.997333 0.64-13.866667 1.792-20.544a138.261333 138.261333 0 0 0-49.130667 105.877333 32 32 0 0 1-64 0 202.666667 202.666667 0 0 1 196.906667-202.581333l5.76-0.085334h15.658667z m10.346666 64a53.333333 53.333333 0 0 0-53.205333 49.834667L448 522.666667v149.333333a10.666667 10.666667 0 0 0 8.746667 10.496l1.92 0.170667h85.333333a10.666667 10.666667 0 0 0 10.496-8.746667L554.666667 672v-149.333333a53.333333 53.333333 0 0 0-53.333334-53.333334z"/>
  </g>
</svg>
