<svg xmlns="http://www.w3.org/2000/svg" viewBox="0 0 64 64" fill="none" role="img" aria-label="Radar range icon">
  <rect x="6" y="6" width="52" height="52" rx="16" fill="#EFF6FF" stroke="#BFDBFE" stroke-width="2"/>
  <path d="M19 22C19 18.6863 21.6863 16 25 16C28.3137 16 31 18.6863 31 22C31 26.2 25 32 25 32C25 32 19 26.2 19 22Z" fill="#38BDF8" stroke="#2563EB" stroke-width="2.5" stroke-linejoin="round"/>
  <circle cx="25" cy="22" r="2.5" fill="white"/>
  <path d="M37 40C37 36.6863 39.6863 34 43 34C46.3137 34 49 36.6863 49 40C49 44.2 43 50 43 50C43 50 37 44.2 37 40Z" fill="#0EA5E9" stroke="#2563EB" stroke-width="2.5" stroke-linejoin="round"/>
  <circle cx="43" cy="40" r="2.5" fill="white"/>
  <path d="M28.5 27.5C32 30.5 34.5 32.5 38 36" stroke="#2563EB" stroke-width="2.5" stroke-linecap="round" stroke-dasharray="3.5 4"/>
  <path d="M28 38H34" stroke="#93C5FD" stroke-width="2.5" stroke-linecap="round"/>
  <path d="M31 35V41" stroke="#93C5FD" stroke-width="2.5" stroke-linecap="round"/>
</svg>
