<svg xmlns="http://www.w3.org/2000/svg" viewBox="0 0 88 88" fill="none" role="img" aria-label="Large UAV target icon">
  <rect x="8" y="8" width="72" height="72" rx="22" fill="#ECFBFF" stroke="#97E2F8" stroke-width="2"/>
  <circle cx="44" cy="44" r="18" fill="#BAE6FD" opacity="0.55"/>
  <g transform="translate(20.8 21.2) scale(0.044)">
    <path d="M460.32 815.872l-0.64-21.824c-0.96-33.28-2.144-73.984-3.52-114.688a5643.424 5643.424 0 0 0-3.52-88.64 1223.008 1223.008 0 0 0-1.6-27.104 246.272 246.272 0 0 0-14.912-2.144c-23.776-2.816-57.792-4.48-96.96-5.344-78.112-1.696-172.992-0.064-239.872 1.088H98.88c-28.544 0.512-52.192 0.928-66.88 0.928H0v-32c0-27.36 18.784-46.304 33.6-57.376 16-11.904 36.128-21.28 54.848-28.352 19.104-7.232 38.56-12.8 54.528-16.576 14.72-3.456 29.76-6.24 38.624-6.24h254.752V196.416c0-15.872 5.728-33.536 18.88-47.456 13.696-14.56 33.376-22.816 56.768-22.816 23.392 0 43.072 8.256 56.8 22.816 13.12 13.92 18.848 31.584 18.848 47.456v221.184h254.72c8.896 0 23.936 2.752 38.656 6.24 15.936 3.776 35.424 9.344 54.528 16.576 18.72 7.072 38.816 16.448 54.816 28.352 14.848 11.072 33.632 30.016 33.632 57.344v32h-32c-14.688 0-38.336-0.384-66.88-0.896h-0.416c-66.88-1.152-161.76-2.784-239.84-1.088-39.232 0.864-73.216 2.528-96.992 5.344a245.728 245.728 0 0 0-14.88 2.144c-0.544 7.136-1.088 16.32-1.6 27.072-1.248 24.192-2.464 55.648-3.552 88.64-1.376 40.736-2.56 81.44-3.52 114.72l-0.64 21.824c4.192 0.128 8.416 0.256 12.48 0.448 7.84 0.32 15.616 0.768 22.016 1.44 3.136 0.32 6.56 0.736 9.696 1.344 1.568 0.32 3.552 0.736 5.696 1.408 1.6 0.48 5.696 1.824 9.952 4.736 4.704 3.2 16.736 12.672 27.456 22.208 5.408 4.832 11.328 10.432 16.128 15.84 2.368 2.656 5.12 5.984 7.456 9.696 1.504 2.368 6.592 10.432 6.592 21.216v32H342.848v-32c0-10.784 5.088-18.88 6.592-21.216 2.336-3.712 5.12-7.04 7.456-9.696 4.8-5.408 10.72-11.008 16.16-15.84 10.688-9.536 22.72-19.008 27.424-22.208 4.256-2.912 8.32-4.256 9.952-4.736 2.144-0.64 4.16-1.12 5.696-1.408 3.136-0.64 6.56-1.024 9.696-1.344 6.4-0.64 14.176-1.12 22.016-1.44 4.064-0.192 8.288-0.32 12.48-0.448z" fill="#0284C7"/>
    <path d="M256 270.144a16 16 0 0 1 16 16v80a16 16 0 1 1-32 0v-80a16 16 0 0 1 16-16zM272 606.208a16 16 0 0 0-32 0v80a16 16 0 1 0 32 0v-80zM768 270.144a16 16 0 0 1 16 16v80a16 16 0 1 1-32 0v-80a16 16 0 0 1 16-16zM784 606.208a16 16 0 0 0-32 0v80a16 16 0 1 0 32 0v-80z" fill="#0EA5E9"/>
    <path d="M297.376 228.8a58.528 58.528 0 1 0-82.752 82.752 32 32 0 0 1-45.248 45.28 122.56 122.56 0 1 1 173.248 0 32 32 0 1 1-45.248-45.28 58.528 58.528 0 0 0 0-82.752zM726.624 228.8a58.528 58.528 0 1 1 82.752 82.752 32 32 0 0 0 45.248 45.28 122.56 122.56 0 1 0-173.248 0 32 32 0 1 0 45.248-45.28 58.528 58.528 0 0 1 0-82.752zM297.376 743.616a58.528 58.528 0 1 1-82.752-82.752 32 32 0 0 0-45.248-45.248 122.528 122.528 0 1 0 173.248 0 32 32 0 1 0-45.248 45.248 58.528 58.528 0 0 1 0 82.752zM726.624 660.864a58.528 58.528 0 1 0 82.752 0 32 32 0 0 1 45.248-45.248 122.56 122.56 0 1 1-173.248 0 32 32 0 0 1 45.248 45.248z" fill="#38BDF8"/>
  </g>
</svg>
