<?xml version="1.0" standalone="no"?><!DOCTYPE svg PUBLIC "-//W3C//DTD SVG 1.1//EN" "http://www.w3.org/Graphics/SVG/1.1/DTD/svg11.dtd"><svg t="1773914062017" class="icon" viewBox="0 0 1024 1024" version="1.1" xmlns="http://www.w3.org/2000/svg" p-id="6437" xmlns:xlink="http://www.w3.org/1999/xlink" width="200" height="200"><path d="M512 365.71648c-80.78848 0-146.28352 65.49504-146.28352 146.28352S431.2064 658.28352 512 658.28352 658.28352 592.7936 658.28352 512 592.7936 365.71648 512 365.71648z m0 219.42784c-40.32 0-73.14432-32.8192-73.14432-73.14432S471.67488 438.85568 512 438.85568s73.14432 32.8192 73.14432 73.14432-32.8192 73.14432-73.14432 73.14432z m512-109.71648h-75.00288c-17.60256-213.10464-187.32032-382.8224-400.42496-400.42496V0H475.42784v75.00288C262.35904 92.61056 92.64128 262.3232 75.008 475.42784H0v73.14432h75.00288c17.6384 213.10464 187.35616 382.8224 400.42496 400.42496V1024h73.14432v-75.00288c213.10464-17.60256 382.8224-187.32032 400.42496-400.42496H1024V475.42784z m-475.42784 400.43008v-71.28576H475.42784v71.28576c-172.49792-17.21344-310.0672-154.78784-327.28576-327.28576h71.28576V475.42784H148.14208c17.21344-172.49792 154.78784-310.0672 327.28576-327.28576v71.28576h73.14432V148.14208c172.49792 17.21344 310.0672 154.78784 327.28576 327.28576h-71.28576v73.14432h71.28576c-17.21344 172.49792-154.78784 310.0672-327.28576 327.28576z" fill="#272636" p-id="6438"></path></svg>