<svg width="1440" height="900" viewBox="0 0 1440 900" fill="none" xmlns="http://www.w3.org/2000/svg">
  <defs>
    <linearGradient id="bg" x1="146" y1="94" x2="1266" y2="810" gradientUnits="userSpaceOnUse">
      <stop stop-color="#F8FBFF"/>
      <stop offset="1" stop-color="#EDF4FF"/>
    </linearGradient>
  </defs>
  <rect width="1440" height="900" rx="48" fill="url(#bg)"/>
  <circle cx="208" cy="160" r="94" fill="#DBEAFE"/>
  <circle cx="1210" cy="724" r="122" fill="#E0F2FE"/>
  <rect x="126" y="146" width="1188" height="608" rx="42" fill="#FFFFFF" stroke="#D8E8F7" stroke-width="2"/>
  <rect x="558" y="278" width="324" height="336" rx="36" fill="#0F172A"/>
  <rect x="588" y="310" width="264" height="212" rx="28" fill="#0EA5E9"/>
  <rect x="618" y="554" width="204" height="22" rx="11" fill="#E0F2FE"/>
  <text x="635" y="424" fill="#FFFFFF" font-family="Arial, sans-serif" font-size="42" font-weight="700">Horizon</text>
  <text x="654" y="468" fill="#E0F2FE" font-family="Arial, sans-serif" font-size="24">unified workflow</text>
  <rect x="212" y="228" width="238" height="136" rx="28" fill="#FFFFFF" stroke="#BFDBFE" stroke-width="2"/>
  <rect x="212" y="538" width="238" height="136" rx="28" fill="#FFFFFF" stroke="#BFDBFE" stroke-width="2"/>
  <rect x="990" y="228" width="238" height="136" rx="28" fill="#FFFFFF" stroke="#C7D2FE" stroke-width="2"/>
  <rect x="990" y="538" width="238" height="136" rx="28" fill="#FFFFFF" stroke="#C7D2FE" stroke-width="2"/>
  <circle cx="332" cy="274" r="24" fill="#0EA5E9"/>
  <rect x="300" y="308" width="64" height="46" rx="14" fill="#475569"/>
  <circle cx="332" cy="584" r="24" fill="#22C55E"/>
  <rect x="298" y="618" width="68" height="20" rx="10" fill="#475569"/>
  <circle cx="1110" cy="274" r="24" fill="#A78BFA"/>
  <rect x="1076" y="308" width="68" height="22" rx="11" fill="#475569"/>
  <rect x="1088" y="338" width="44" height="24" rx="10" fill="#475569"/>
  <rect x="1070" y="576" width="80" height="62" rx="18" fill="#475569"/>
  <rect x="1090" y="560" width="40" height="14" rx="7" fill="#0EA5E9"/>
  <text x="270" y="408" fill="#0F172A" font-family="Arial, sans-serif" font-size="28" font-weight="700">Radar</text>
  <text x="257" y="448" fill="#475569" font-family="Arial, sans-serif" font-size="22">existing sensor feed</text>
  <text x="262" y="718" fill="#0F172A" font-family="Arial, sans-serif" font-size="28" font-weight="700">Optics</text>
  <text x="237" y="758" fill="#475569" font-family="Arial, sans-serif" font-size="22">PTZ and EO channels</text>
  <text x="1074" y="408" fill="#0F172A" font-family="Arial, sans-serif" font-size="28" font-weight="700">RF / CUAS</text>
  <text x="1048" y="448" fill="#475569" font-family="Arial, sans-serif" font-size="22">detectors and countermeasures</text>
  <text x="1024" y="718" fill="#0F172A" font-family="Arial, sans-serif" font-size="28" font-weight="700">Legacy systems</text>
  <text x="1033" y="758" fill="#475569" font-family="Arial, sans-serif" font-size="22">alarms, C2, support subsystems</text>
  <path d="M450 296H558" stroke="#38BDF8" stroke-width="6" stroke-linecap="round"/>
  <path d="M450 606H558" stroke="#22C55E" stroke-width="6" stroke-linecap="round"/>
  <path d="M882 296H990" stroke="#A78BFA" stroke-width="6" stroke-linecap="round"/>
  <path d="M882 606H990" stroke="#0EA5E9" stroke-width="6" stroke-linecap="round"/>
  <circle cx="558" cy="296" r="10" fill="#38BDF8"/>
  <circle cx="558" cy="606" r="10" fill="#22C55E"/>
  <circle cx="882" cy="296" r="10" fill="#A78BFA"/>
  <circle cx="882" cy="606" r="10" fill="#0EA5E9"/>
</svg>
