<svg width="1440" height="900" viewBox="0 0 1440 900" fill="none" xmlns="http://www.w3.org/2000/svg">
  <defs>
    <linearGradient id="bg" x1="144" y1="96" x2="1248" y2="806" gradientUnits="userSpaceOnUse">
      <stop stop-color="#F8FBFF"/>
      <stop offset="1" stop-color="#E8F5FF"/>
    </linearGradient>
    <linearGradient id="ground" x1="160" y1="312" x2="1168" y2="772" gradientUnits="userSpaceOnUse">
      <stop stop-color="#EEF7E8"/>
      <stop offset="1" stop-color="#DDEFD8"/>
    </linearGradient>
  </defs>
  <rect width="1440" height="900" rx="48" fill="url(#bg)"/>
  <circle cx="1212" cy="158" r="108" fill="#E0F2FE"/>
  <circle cx="208" cy="138" r="88" fill="#DBEAFE"/>
  <rect x="104" y="124" width="1232" height="652" rx="44" fill="#FFFFFF" stroke="#D8E8F7" stroke-width="2"/>
  <rect x="146" y="174" width="986" height="552" rx="36" fill="url(#ground)" stroke="#BFE3C5" stroke-width="2"/>
  <rect x="892" y="226" width="192" height="142" rx="24" fill="#FFFFFF" stroke="#BFDBFE" stroke-width="2"/>
  <rect x="910" y="244" width="156" height="28" rx="14" fill="#E0F2FE"/>
  <rect x="920" y="292" width="70" height="48" rx="16" fill="#DBEAFE"/>
  <rect x="1002" y="292" width="64" height="48" rx="16" fill="#DBEAFE"/>
  <text x="922" y="393" fill="#0F172A" font-family="Arial, sans-serif" font-size="28" font-weight="700">Control room</text>
  <rect x="350" y="354" width="500" height="74" rx="26" fill="#CBD5E1"/>
  <rect x="324" y="384" width="552" height="16" rx="8" fill="#E2E8F0"/>
  <rect x="366" y="434" width="468" height="184" rx="26" fill="#94A3B8" fill-opacity="0.18"/>
  <rect x="384" y="452" width="432" height="148" rx="22" fill="#FFFFFF" fill-opacity="0.52"/>
  <rect x="540" y="236" width="132" height="78" rx="20" fill="#FFFFFF" stroke="#BFDBFE" stroke-width="2"/>
  <text x="568" y="284" fill="#0F172A" font-family="Arial, sans-serif" font-size="26" font-weight="700">Tower</text>
  <path d="M248 602C290 474 414 382 570 382" stroke="#38BDF8" stroke-width="6" stroke-linecap="round"/>
  <path d="M952 602C910 474 786 382 630 382" stroke="#38BDF8" stroke-width="6" stroke-linecap="round"/>
  <path d="M214 648C266 458 430 326 640 326" stroke="#7DD3FC" stroke-width="6" stroke-linecap="round" stroke-opacity="0.8"/>
  <path d="M986 648C934 458 770 326 560 326" stroke="#7DD3FC" stroke-width="6" stroke-linecap="round" stroke-opacity="0.8"/>
  <rect x="200" y="564" width="112" height="92" rx="24" fill="#FFFFFF" stroke="#BFDBFE" stroke-width="2"/>
  <rect x="888" y="564" width="112" height="92" rx="24" fill="#FFFFFF" stroke="#BFDBFE" stroke-width="2"/>
  <circle cx="256" cy="616" r="20" fill="#0EA5E9"/>
  <circle cx="944" cy="616" r="20" fill="#0EA5E9"/>
  <rect x="248" y="634" width="16" height="44" rx="8" fill="#475569"/>
  <rect x="936" y="634" width="16" height="44" rx="8" fill="#475569"/>
  <rect x="1068" y="418" width="176" height="232" rx="28" fill="#F8FAFC" stroke="#D8E8F7" stroke-width="2"/>
  <text x="1104" y="464" fill="#0F172A" font-family="Arial, sans-serif" font-size="28" font-weight="700">Design basis</text>
  <rect x="1098" y="498" width="114" height="18" rx="9" fill="#0EA5E9" fill-opacity="0.22"/>
  <rect x="1098" y="534" width="108" height="18" rx="9" fill="#22C55E" fill-opacity="0.22"/>
  <rect x="1098" y="570" width="96" height="18" rx="9" fill="#A78BFA" fill-opacity="0.22"/>
  <rect x="1098" y="610" width="120" height="18" rx="9" fill="#F59E0B" fill-opacity="0.22"/>
  <path d="M1000 298L1072 418" stroke="#94A3B8" stroke-width="5" stroke-linecap="round" stroke-dasharray="10 12"/>
  <path d="M968 656L1072 648" stroke="#94A3B8" stroke-width="5" stroke-linecap="round" stroke-dasharray="10 12"/>
</svg>
