<svg width="1280" height="820" viewBox="0 0 1280 820" fill="none" xmlns="http://www.w3.org/2000/svg">
  <rect width="1280" height="820" rx="40" fill="#F8FBFF"/>
  <path d="M0 266C166 206 320 210 468 266C610 318 738 420 880 460C1004 494 1140 492 1280 454V820H0V266Z" fill="#CFF3FF"/>
  <path d="M0 346C188 270 338 272 496 326C648 378 772 480 902 510C1028 540 1158 532 1280 486" stroke="#7DD3FC" stroke-width="6"/>
  <rect x="90" y="146" width="1100" height="558" rx="36" fill="none" stroke="#D8E8F7" stroke-width="2"/>
  <rect x="138" y="338" width="168" height="118" rx="26" fill="#FFFFFF" stroke="#BFDBFE" stroke-width="2"/>
  <rect x="170" y="368" width="104" height="58" rx="16" fill="#0F172A"/>
  <rect x="196" y="348" width="54" height="20" rx="10" fill="#0EA5E9"/>
  <text x="128" y="508" fill="#0F172A" font-family="Arial, sans-serif" font-size="28" font-weight="700">Control cabin</text>
  <rect x="430" y="264" width="136" height="244" rx="22" fill="#FFFFFF" stroke="#BFDBFE" stroke-width="2"/>
  <rect x="724" y="244" width="136" height="264" rx="22" fill="#FFFFFF" stroke="#BFDBFE" stroke-width="2"/>
  <circle cx="498" cy="304" r="20" fill="#0EA5E9"/>
  <circle cx="792" cy="284" r="20" fill="#0EA5E9"/>
  <rect x="492" y="322" width="12" height="164" rx="6" fill="#475569"/>
  <rect x="786" y="302" width="12" height="184" rx="6" fill="#475569"/>
  <path d="M498 304C584 252 666 252 792 284" stroke="#38BDF8" stroke-width="5" stroke-linecap="round"/>
  <path d="M470 340C580 274 676 276 826 326" stroke="#7DD3FC" stroke-width="5" stroke-linecap="round" stroke-opacity="0.85"/>
  <rect x="426" y="556" width="154" height="96" rx="24" fill="#FFFFFF" stroke="#BFE3C5" stroke-width="2"/>
  <rect x="630" y="532" width="154" height="96" rx="24" fill="#FFFFFF" stroke="#BFE3C5" stroke-width="2"/>
  <rect x="842" y="564" width="154" height="96" rx="24" fill="#FFFFFF" stroke="#BFE3C5" stroke-width="2"/>
  <circle cx="504" cy="604" r="24" fill="#22C55E" fill-opacity="0.25" stroke="#22C55E" stroke-width="4"/>
  <circle cx="708" cy="580" r="24" fill="#22C55E" fill-opacity="0.25" stroke="#22C55E" stroke-width="4"/>
  <circle cx="920" cy="612" r="24" fill="#22C55E" fill-opacity="0.25" stroke="#22C55E" stroke-width="4"/>
  <text x="116" y="190" fill="#0F172A" font-family="Arial, sans-serif" font-size="30" font-weight="700">Shoreline sensing for fishery zones</text>
</svg>
