<svg width="1600" height="900" viewBox="0 0 1600 900" fill="none" xmlns="http://www.w3.org/2000/svg">
  <rect width="1600" height="900" rx="48" fill="#F8FAFC"/>
  <rect x="70" y="70" width="1460" height="760" rx="40" fill="url(#bg)"/>
  <rect x="180" y="250" width="300" height="230" rx="32" fill="#FFF7ED" stroke="#EA580C" stroke-width="6"/>
  <path d="M240 410C280 300 320 520 360 340C392 250 430 460 470 300" stroke="#C2410C" stroke-width="10" stroke-linecap="round" stroke-linejoin="round"/>
  <rect x="610" y="210" width="380" height="310" rx="36" fill="#E0F2FE" stroke="#0F5FA8" stroke-width="6"/>
  <rect x="690" y="290" width="220" height="150" rx="24" fill="#FFFFFF" stroke="#93C5FD" stroke-width="4"/>
  <path d="M520 365H610" stroke="#94A3B8" stroke-width="12" stroke-linecap="round"/>
  <path d="M990 365H1170" stroke="#94A3B8" stroke-width="12" stroke-linecap="round"/>
  <rect x="1170" y="200" width="240" height="330" rx="36" fill="#ECFDF5" stroke="#0F766E" stroke-width="6"/>
  <g stroke="#10B981" stroke-width="8" stroke-linecap="round">
    <path d="M1230 280H1350"/>
    <path d="M1230 340H1350"/>
    <path d="M1230 400H1350"/>
    <path d="M1230 460H1300"/>
  </g>
  <rect x="330" y="590" width="960" height="120" rx="28" fill="#FFFFFF" stroke="#CBD5E1" stroke-width="4"/>
  <circle cx="430" cy="650" r="18" fill="#EA580C"/>
  <circle cx="730" cy="650" r="18" fill="#0F5FA8"/>
  <circle cx="1030" cy="650" r="18" fill="#0F766E"/>
  <path d="M448 650H712" stroke="#CBD5E1" stroke-width="6" stroke-linecap="round"/>
  <path d="M748 650H1012" stroke="#CBD5E1" stroke-width="6" stroke-linecap="round"/>
  <defs>
    <linearGradient id="bg" x1="70" y1="70" x2="1530" y2="830" gradientUnits="userSpaceOnUse">
      <stop stop-color="#FFFFFF"/>
      <stop offset="1" stop-color="#EFF6FF"/>
    </linearGradient>
  </defs>
</svg>
