<svg width="1600" height="900" viewBox="0 0 1600 900" fill="none" xmlns="http://www.w3.org/2000/svg">
  <rect width="1600" height="900" rx="48" fill="#F8FAFC"/>
  <rect x="70" y="70" width="1460" height="760" rx="40" fill="url(#bg)"/>
  <circle cx="390" cy="300" r="90" fill="#DBEAFE"/>
  <rect x="345" y="255" width="90" height="90" rx="24" fill="#2563EB"/>
  <path d="M450 330L720 500" stroke="#0F5FA8" stroke-width="6" stroke-dasharray="14 14"/>
  <path d="M450 280L780 410" stroke="#0F5FA8" stroke-width="6" stroke-dasharray="14 14"/>
  <path d="M450 240L840 340" stroke="#0F5FA8" stroke-width="6" stroke-dasharray="14 14"/>
  <rect x="720" y="250" width="550" height="360" rx="28" fill="#FFFFFF" stroke="#CBD5E1" stroke-width="4"/>
  <path d="M760 560L1220 290" stroke="#0F766E" stroke-width="4"/>
  <path d="M760 520L1180 270" stroke="#10B981" stroke-width="4"/>
  <path d="M760 480L1140 250" stroke="#34D399" stroke-width="4"/>
  <path d="M760 440L1100 250" stroke="#6EE7B7" stroke-width="4"/>
  <path d="M760 400L1060 250" stroke="#A7F3D0" stroke-width="4"/>
  <rect x="290" y="560" width="410" height="120" rx="28" fill="#FFF7ED" stroke="#F59E0B" stroke-width="4"/>
  <path d="M360 620C420 580 480 580 540 620C590 650 640 650 690 620" stroke="#C2410C" stroke-width="8" stroke-linecap="round"/>
  <defs>
    <linearGradient id="bg" x1="70" y1="70" x2="1530" y2="830" gradientUnits="userSpaceOnUse">
      <stop stop-color="#FFFFFF"/>
      <stop offset="1" stop-color="#F0FDF4"/>
    </linearGradient>
  </defs>
</svg>
