<svg xmlns="http://www.w3.org/2000/svg" viewBox="0 0 1200 630" role="img" aria-labelledby="title desc">
  <title id="title">What is UTM U-space cover</title>
  <desc id="desc">Low-altitude drone traffic coordination illustration with routes, service nodes, and aircraft.</desc>
  <defs>
    <linearGradient id="bg" x1="0" x2="1" y1="0" y2="1">
      <stop offset="0%" stop-color="#081b2e"/>
      <stop offset="100%" stop-color="#13476f"/>
    </linearGradient>
    <linearGradient id="chip" x1="0" x2="0" y1="0" y2="1">
      <stop offset="0%" stop-color="#f9fcff"/>
      <stop offset="100%" stop-color="#e3f4ff"/>
    </linearGradient>
    <filter id="shadow" x="-20%" y="-20%" width="140%" height="140%">
      <feDropShadow dx="0" dy="12" stdDeviation="16" flood-color="#03121d" flood-opacity="0.34"/>
    </filter>
  </defs>
  <rect width="1200" height="630" fill="url(#bg)"/>
  <circle cx="1018" cy="118" r="108" fill="#53b8ff" opacity="0.09"/>
  <circle cx="1094" cy="514" r="156" fill="#0a2437" opacity="0.34"/>
  <path d="M0 546c192-54 306-12 442-38s228-136 356-138 206 96 402 76V630H0Z" fill="#0a2437" opacity="0.62"/>
  <g filter="url(#shadow)">
    <rect x="100" y="86" width="356" height="104" rx="24" fill="#0f304b" stroke="#4cb2ff" stroke-opacity="0.3"/>
  </g>
  <text x="132" y="128" fill="#8fd3ff" font-family="Segoe UI, Arial, sans-serif" font-size="22" font-weight="700" letter-spacing="2">FOUNDATION</text>
  <text x="132" y="164" fill="#ffffff" font-family="Segoe UI, Arial, sans-serif" font-size="40" font-weight="700">What is UTM / U-space?</text>
  <text x="100" y="264" fill="#d9edff" font-family="Segoe UI, Arial, sans-serif" font-size="28" font-weight="700">Digital coordination for routine drone operations</text>
  <text x="100" y="308" fill="#d9edff" font-family="Segoe UI, Arial, sans-serif" font-size="20">
    <tspan x="100" dy="0">Shared services, approvals, and traffic information help</tspan>
    <tspan x="100" dy="28">multiple low-altitude flights coexist more safely.</tspan>
  </text>
  <g transform="translate(690 118)">
    <ellipse cx="266" cy="392" rx="276" ry="84" fill="#061827" opacity="0.46"/>
    <path d="M168 314c90-86 198-126 312-110" fill="none" stroke="#6dc5ff" stroke-width="4" stroke-dasharray="9 12"/>
    <path d="M120 238c72-52 162-70 252-58" fill="none" stroke="#6dc5ff" stroke-width="4" stroke-dasharray="9 12"/>
    <path d="M278 224c40-54 98-92 172-110" fill="none" stroke="#6dc5ff" stroke-width="4" stroke-dasharray="9 12"/>
    <g transform="translate(64 206)">
      <circle cx="0" cy="0" r="14" fill="#79d0ff"/>
      <path d="M0-24v-18" stroke="#9bdbff" stroke-width="4" stroke-linecap="round"/>
      <circle cx="0" cy="44" r="46" fill="#10314d" stroke="#8bd2ff" stroke-width="4"/>
      <rect x="-20" y="86" width="40" height="46" rx="10" fill="#164564" stroke="#8bd2ff" stroke-width="3"/>
      <path d="M-26 62-72 88M26 62 72 88M-22 104-68 128M22 104 68 128" stroke="#9bdbff" stroke-width="10" stroke-linecap="round"/>
    </g>
    <g transform="translate(362 148)">
      <circle cx="0" cy="0" r="14" fill="#79d0ff"/>
      <path d="M0-24v-18" stroke="#9bdbff" stroke-width="4" stroke-linecap="round"/>
      <circle cx="0" cy="44" r="46" fill="#10314d" stroke="#8bd2ff" stroke-width="4"/>
      <rect x="-20" y="86" width="40" height="46" rx="10" fill="#164564" stroke="#8bd2ff" stroke-width="3"/>
      <path d="M-26 62-72 88M26 62 72 88M-22 104-68 128M22 104 68 128" stroke="#9bdbff" stroke-width="10" stroke-linecap="round"/>
    </g>
    <g filter="url(#shadow)">
      <rect x="184" y="126" width="148" height="92" rx="24" fill="url(#chip)" stroke="#90ceff" stroke-width="3"/>
    </g>
    <text x="212" y="162" fill="#144061" font-family="Segoe UI, Arial, sans-serif" font-size="20" font-weight="700">SERVICE</text>
    <text x="212" y="190" fill="#144061" font-family="Segoe UI, Arial, sans-serif" font-size="20" font-weight="700">LAYER</text>
    <g filter="url(#shadow)">
      <rect x="126" y="306" width="292" height="108" rx="24" fill="#10314d" stroke="#5bb7ff" stroke-width="3"/>
    </g>
    <text x="154" y="340" fill="#93d7ff" font-family="Segoe UI, Arial, sans-serif" font-size="19" font-weight="700">Shared functions</text>
    <text x="154" y="372" fill="#ffffff" font-family="Segoe UI, Arial, sans-serif" font-size="18">Authorization</text>
    <text x="286" y="372" fill="#ffffff" font-family="Segoe UI, Arial, sans-serif" font-size="18">Geo-awareness</text>
    <text x="154" y="400" fill="#ffffff" font-family="Segoe UI, Arial, sans-serif" font-size="18">Traffic info</text>
    <text x="286" y="400" fill="#ffffff" font-family="Segoe UI, Arial, sans-serif" font-size="18">Network ID</text>
  </g>
</svg>
