<svg width="900" height="1200" viewBox="0 0 900 1200" fill="none" xmlns="http://www.w3.org/2000/svg">
  <defs>
    <linearGradient id="srcBase" x1="110" y1="46" x2="763" y2="1124" gradientUnits="userSpaceOnUse">
      <stop stop-color="#F5FBFF"/>
      <stop offset="0.48" stop-color="#E1F3FF"/>
      <stop offset="1" stop-color="#D9EEFF"/>
    </linearGradient>
    <radialGradient id="srcGlow" cx="0" cy="0" r="1" gradientUnits="userSpaceOnUse" gradientTransform="translate(705 197) rotate(128.112) scale(343.261 394.917)">
      <stop stop-color="#7DD3FC" stop-opacity="0.65"/>
      <stop offset="1" stop-color="#7DD3FC" stop-opacity="0"/>
    </radialGradient>
    <linearGradient id="srcSweep" x1="557" y1="521" x2="390" y2="896" gradientUnits="userSpaceOnUse">
      <stop stop-color="#0EA5E9" stop-opacity="0.28"/>
      <stop offset="1" stop-color="#0EA5E9" stop-opacity="0"/>
    </linearGradient>
  </defs>
  <rect width="900" height="1200" fill="url(#srcBase)"/>
  <rect width="900" height="1200" fill="url(#srcGlow)"/>
  <path d="M566 0H900V334L464 1200H147L566 0Z" fill="white" fill-opacity="0.5"/>
  <path d="M78 931C201 849 316 810 431 810C534 810 641 839 752 839C804 839 853 833 900 821V1200H78V931Z" fill="#E9F7FF"/>
  <path d="M450 980C450 791.671 602.671 639 791 639" stroke="#93C5FD" stroke-opacity="0.52" stroke-width="3"/>
  <path d="M450 980C450 736.443 647.443 539 891 539" stroke="#7DD3FC" stroke-opacity="0.42" stroke-width="3"/>
  <path d="M450 980C450 880.589 530.589 800 630 800" stroke="#38BDF8" stroke-opacity="0.52" stroke-width="3"/>
  <path d="M450 980C450 672.378 699.378 423 1007 423" stroke="#BAE6FD" stroke-opacity="0.36" stroke-width="3"/>
  <path d="M450 980L706 472L560 980H450Z" fill="url(#srcSweep)"/>
  <path d="M447 983L690 503" stroke="#0EA5E9" stroke-opacity="0.45" stroke-width="2.5"/>
  <circle cx="687" cy="509" r="8" fill="#0EA5E9" fill-opacity="0.22" stroke="#0284C7" stroke-width="2.5"/>
  <circle cx="745" cy="598" r="7" fill="#38BDF8" fill-opacity="0.2" stroke="#0284C7" stroke-width="2.5"/>
  <circle cx="610" cy="693" r="6" fill="#38BDF8" fill-opacity="0.18" stroke="#0284C7" stroke-width="2"/>
  <path d="M171 163H442" stroke="#7DD3FC" stroke-opacity="0.3" stroke-width="3"/>
  <path d="M121 209H358" stroke="#BAE6FD" stroke-opacity="0.28" stroke-width="3"/>
  <path d="M603 149H771" stroke="#38BDF8" stroke-opacity="0.18" stroke-width="3"/>
  <path d="M160 1002H739" stroke="#94A3B8" stroke-opacity="0.28" stroke-width="3"/>
</svg>
