<svg width="900" height="1200" viewBox="0 0 900 1200" fill="none" xmlns="http://www.w3.org/2000/svg">
  <defs>
    <linearGradient id="socBase" x1="152" y1="65" x2="754" y2="1121" gradientUnits="userSpaceOnUse">
      <stop stop-color="#FFF8ED"/>
      <stop offset="0.48" stop-color="#FFF1DA"/>
      <stop offset="1" stop-color="#E8F6FF"/>
    </linearGradient>
    <radialGradient id="socLens" cx="0" cy="0" r="1" gradientUnits="userSpaceOnUse" gradientTransform="translate(683 239) rotate(90) scale(313 313)">
      <stop stop-color="#FCD34D" stop-opacity="0.62"/>
      <stop offset="1" stop-color="#FCD34D" stop-opacity="0"/>
    </radialGradient>
  </defs>
  <rect width="900" height="1200" fill="url(#socBase)"/>
  <rect width="900" height="1200" fill="url(#socLens)"/>
  <path d="M520 0H900V357L515 1200H191L520 0Z" fill="white" fill-opacity="0.46"/>
  <rect x="138" y="171" width="286" height="286" rx="48" stroke="#FBBF24" stroke-opacity="0.34" stroke-width="4"/>
  <rect x="176" y="209" width="210" height="210" rx="34" stroke="#F59E0B" stroke-opacity="0.3" stroke-width="3"/>
  <circle cx="281" cy="314" r="70" fill="#FFF7ED" fill-opacity="0.72" stroke="#F59E0B" stroke-opacity="0.34" stroke-width="4"/>
  <circle cx="281" cy="314" r="40" fill="#FDE68A" fill-opacity="0.36" stroke="#D97706" stroke-opacity="0.42" stroke-width="3"/>
  <path d="M281 226V261" stroke="#D97706" stroke-opacity="0.34" stroke-width="3" stroke-linecap="round"/>
  <path d="M281 367V402" stroke="#D97706" stroke-opacity="0.34" stroke-width="3" stroke-linecap="round"/>
  <path d="M193 314H228" stroke="#D97706" stroke-opacity="0.34" stroke-width="3" stroke-linecap="round"/>
  <path d="M334 314H369" stroke="#D97706" stroke-opacity="0.34" stroke-width="3" stroke-linecap="round"/>
  <path d="M560 164H789" stroke="#FFF7ED" stroke-opacity="0.38" stroke-width="3"/>
  <path d="M607 209H824" stroke="#FFF7ED" stroke-opacity="0.24" stroke-width="3"/>
  <path d="M84 934C181 855 299 812 418 812C535 812 640 851 748 851C796 851 847 844 900 825V1200H84V934Z" fill="#EFF8FF"/>
  <path d="M111 988C203 915 318 875 430 875C532 875 640 908 749 908C798 908 849 900 900 883" stroke="#F59E0B" stroke-opacity="0.18" stroke-width="3"/>
</svg>
