<svg width="1200" height="760" viewBox="0 0 1200 760" fill="none" xmlns="http://www.w3.org/2000/svg">
  <defs>
    <linearGradient id="bg" x1="180" y1="80" x2="980" y2="660" gradientUnits="userSpaceOnUse">
      <stop stop-color="#F6FDFF"/>
      <stop offset="1" stop-color="#ECF7FF"/>
    </linearGradient>
    <linearGradient id="beam" x1="602" y1="426" x2="992" y2="170" gradientUnits="userSpaceOnUse">
      <stop stop-color="#75D7FF" stop-opacity="0.22"/>
      <stop offset="1" stop-color="#13A6E8" stop-opacity="0.02"/>
    </linearGradient>
    <linearGradient id="beam2" x1="598" y1="428" x2="950" y2="588" gradientUnits="userSpaceOnUse">
      <stop stop-color="#B6ECFF" stop-opacity="0.24"/>
      <stop offset="1" stop-color="#13A6E8" stop-opacity="0.03"/>
    </linearGradient>
  </defs>

  <rect x="22" y="22" width="1156" height="716" rx="36" fill="url(#bg)" stroke="#CBEAF7" stroke-width="2"/>

  <circle cx="600" cy="428" r="248" fill="none" stroke="#8DD7F7" stroke-width="2"/>
  <circle cx="600" cy="428" r="188" fill="none" stroke="#A6E5FA" stroke-width="2" stroke-dasharray="10 10"/>
  <circle cx="600" cy="428" r="122" fill="none" stroke="#BDEEFE" stroke-width="2" stroke-dasharray="8 8"/>

  <path d="M600 428L1018 168L1056 226L600 428Z" fill="url(#beam)"/>
  <path d="M600 428L960 590L916 646L600 428Z" fill="url(#beam2)"/>

  <path d="M346 522C430 456 500 430 600 428" stroke="#9EDBF4" stroke-width="4" stroke-linecap="round" stroke-dasharray="12 14"/>
  <path d="M600 428C716 422 818 366 926 246" stroke="#17A8EB" stroke-width="5" stroke-linecap="round" stroke-dasharray="14 16"/>
  <path d="M602 428C718 456 820 514 912 602" stroke="#49BFF4" stroke-width="4" stroke-linecap="round" stroke-dasharray="10 16"/>

  <rect x="118" y="542" width="154" height="100" rx="28" fill="#FFF6E7" stroke="#FFD48B" stroke-width="2"/>
  <path d="M170 600L188 562H202L220 600V618H170V600Z" fill="#F59E0B" stroke="#D97706" stroke-width="2.5" stroke-linejoin="round"/>
  <path d="M183 562V544" stroke="#D97706" stroke-width="2.5" stroke-linecap="round"/>
  <circle cx="183" cy="538" r="7" fill="#FFF2C2" stroke="#D97706" stroke-width="2.5"/>
  <path d="M204 568H232" stroke="#D97706" stroke-width="2.5" stroke-linecap="round"/>
  <circle cx="242" cy="568" r="10" fill="#FBBF24" stroke="#D97706" stroke-width="2.5"/>

  <rect x="916" y="138" width="166" height="112" rx="28" fill="#ECFBFF" stroke="#8DD7F7" stroke-width="2"/>
  <path d="M954 196L978 176H1020L1044 196L1024 214H972L954 196Z" fill="#38BDF8" stroke="#0284C7" stroke-width="2.5" stroke-linejoin="round"/>
  <path d="M978 176L968 160" stroke="#0284C7" stroke-width="2.5" stroke-linecap="round"/>
  <path d="M1020 176L1030 160" stroke="#0284C7" stroke-width="2.5" stroke-linecap="round"/>
  <circle cx="1000" cy="196" r="10" fill="#E7F9FF" stroke="#0284C7" stroke-width="2.5"/>
  <path d="M940 226C962 212 982 206 1000 206C1018 206 1038 212 1060 226" stroke="#38BDF8" stroke-width="2.5" stroke-linecap="round"/>

  <rect x="866" y="560" width="192" height="112" rx="28" fill="#F3EEFF" stroke="#D2C2FF" stroke-width="2"/>
  <rect x="902" y="592" width="112" height="22" rx="11" fill="#8B5CF6" opacity="0.18"/>
  <path d="M922 614V586C922 560 942 540 966 540C992 540 1012 560 1012 586V614" stroke="#6D28D9" stroke-width="2.5" stroke-linecap="round"/>
  <path d="M944 614V572" stroke="#6D28D9" stroke-width="2.5" stroke-linecap="round"/>
  <path d="M990 614V572" stroke="#6D28D9" stroke-width="2.5" stroke-linecap="round"/>
  <path d="M942 572H992" stroke="#7C3AED" stroke-width="2.5" stroke-linecap="round"/>
  <circle cx="966" cy="566" r="10" fill="#F5F0FF" stroke="#6D28D9" stroke-width="2.5"/>

  <rect x="520" y="426" width="164" height="214" rx="38" fill="#FFFFFF" stroke="#CBE3EE" stroke-width="2"/>
  <rect x="548" y="462" width="108" height="122" rx="24" fill="#EAF8FF" stroke="#8DD7F7" stroke-width="2"/>
  <rect x="564" y="478" width="76" height="18" rx="9" fill="#15A5E8" opacity="0.22"/>
  <rect x="572" y="512" width="60" height="52" rx="18" fill="#3ABCF2" stroke="#0284C7" stroke-width="2.5"/>
  <circle cx="602" cy="538" r="12" fill="#E8FBFF" stroke="#0284C7" stroke-width="2.5"/>
  <rect x="562" y="606" width="80" height="16" rx="8" fill="#DCEFF8"/>
  <path d="M548 620H656" stroke="#7BBFD9" stroke-width="2.5" stroke-linecap="round"/>
  <path d="M562 640H642" stroke="#D5E9F3" stroke-width="8" stroke-linecap="round"/>

  <circle cx="600" cy="428" r="18" fill="#E7F9FF" stroke="#0284C7" stroke-width="3"/>
  <circle cx="600" cy="428" r="6" fill="#0284C7"/>
</svg>
