<svg width="1200" height="760" viewBox="0 0 1200 760" fill="none" xmlns="http://www.w3.org/2000/svg">
  <defs>
    <linearGradient id="bg2" x1="122" y1="98" x2="1042" y2="676" gradientUnits="userSpaceOnUse">
      <stop stop-color="#F9FCFF"/>
      <stop offset="1" stop-color="#F3F9FF"/>
    </linearGradient>
  </defs>

  <rect x="22" y="22" width="1156" height="716" rx="36" fill="url(#bg2)" stroke="#D7E9F7" stroke-width="2"/>

  <path d="M266 380H450" stroke="#89C8E7" stroke-width="6" stroke-linecap="round"/>
  <path d="M450 380H630" stroke="#89C8E7" stroke-width="6" stroke-linecap="round" stroke-dasharray="10 14"/>
  <path d="M630 380H824" stroke="#89C8E7" stroke-width="6" stroke-linecap="round"/>
  <path d="M824 380H934" stroke="#89C8E7" stroke-width="6" stroke-linecap="round" stroke-dasharray="10 14"/>

  <circle cx="450" cy="380" r="18" fill="#E7F9FF" stroke="#0EA5E9" stroke-width="3"/>
  <circle cx="630" cy="380" r="18" fill="#F5F0FF" stroke="#7C3AED" stroke-width="3"/>
  <circle cx="824" cy="380" r="18" fill="#FFF6E7" stroke="#D97706" stroke-width="3"/>

  <rect x="112" y="286" width="154" height="190" rx="34" fill="#FFFFFF" stroke="#D5E6F1" stroke-width="2"/>
  <rect x="142" y="330" width="94" height="110" rx="22" fill="#EAF8FF" stroke="#8DD7F7" stroke-width="2"/>
  <rect x="158" y="346" width="62" height="18" rx="9" fill="#15A5E8" opacity="0.24"/>
  <rect x="168" y="378" width="42" height="38" rx="14" fill="#3ABCF2" stroke="#0284C7" stroke-width="2.5"/>
  <circle cx="189" cy="397" r="8" fill="#E8FBFF" stroke="#0284C7" stroke-width="2.5"/>
  <path d="M136 450H242" stroke="#B6DAEC" stroke-width="6" stroke-linecap="round"/>
  <path d="M158 468H220" stroke="#DCECF5" stroke-width="8" stroke-linecap="round"/>

  <rect x="340" y="254" width="220" height="252" rx="34" fill="#ECFBFF" stroke="#8DD7F7" stroke-width="2"/>
  <rect x="378" y="302" width="144" height="112" rx="28" fill="#DFF6FF" stroke="#38BDF8" stroke-width="2.5"/>
  <path d="M420 328L452 348L482 334L516 358" stroke="#0284C7" stroke-width="3" stroke-linecap="round" stroke-linejoin="round"/>
  <circle cx="420" cy="328" r="9" fill="#E7F9FF" stroke="#0284C7" stroke-width="2.5"/>
  <circle cx="452" cy="348" r="9" fill="#E7F9FF" stroke="#0284C7" stroke-width="2.5"/>
  <circle cx="482" cy="334" r="9" fill="#E7F9FF" stroke="#0284C7" stroke-width="2.5"/>
  <circle cx="516" cy="358" r="9" fill="#E7F9FF" stroke="#0284C7" stroke-width="2.5"/>
  <path d="M394 430H506" stroke="#74CDEE" stroke-width="3" stroke-linecap="round"/>
  <path d="M418 454H482" stroke="#BFEFFF" stroke-width="8" stroke-linecap="round"/>

  <rect x="534" y="246" width="192" height="268" rx="34" fill="#F5F0FF" stroke="#D2C2FF" stroke-width="2"/>
  <rect x="574" y="298" width="112" height="92" rx="26" fill="#EEE3FF" stroke="#8B5CF6" stroke-width="2.5"/>
  <path d="M596 324H664" stroke="#6D28D9" stroke-width="3" stroke-linecap="round"/>
  <path d="M596 352H652" stroke="#7C3AED" stroke-width="3" stroke-linecap="round"/>
  <path d="M596 380H638" stroke="#8B5CF6" stroke-width="3" stroke-linecap="round"/>
  <circle cx="632" cy="440" r="30" fill="#F3EEFF" stroke="#6D28D9" stroke-width="2.5"/>
  <path d="M632 422V440L646 452" stroke="#6D28D9" stroke-width="3" stroke-linecap="round" stroke-linejoin="round"/>

  <rect x="736" y="254" width="176" height="252" rx="34" fill="#FFF6E7" stroke="#FFD48B" stroke-width="2"/>
  <rect x="776" y="306" width="96" height="104" rx="24" fill="#FFF0CC" stroke="#F59E0B" stroke-width="2.5"/>
  <path d="M804 330H844" stroke="#D97706" stroke-width="3" stroke-linecap="round"/>
  <path d="M804 356H852" stroke="#D97706" stroke-width="3" stroke-linecap="round"/>
  <path d="M804 382H838" stroke="#D97706" stroke-width="3" stroke-linecap="round"/>
  <path d="M814 446L826 432H858L870 446V470H814V446Z" fill="#FBBF24" stroke="#D97706" stroke-width="2.5" stroke-linejoin="round"/>
  <path d="M842 432V414" stroke="#D97706" stroke-width="2.5" stroke-linecap="round"/>
  <circle cx="842" cy="408" r="8" fill="#FFF2C2" stroke="#D97706" stroke-width="2.5"/>

  <rect x="934" y="286" width="154" height="190" rx="34" fill="#ECFFF4" stroke="#A7F3C6" stroke-width="2"/>
  <path d="M974 344L1012 318L1050 344" stroke="#059669" stroke-width="3" stroke-linecap="round" stroke-linejoin="round"/>
  <rect x="974" y="344" width="76" height="72" rx="20" fill="#E7FFF0" stroke="#10B981" stroke-width="2.5"/>
  <path d="M990 370H1034" stroke="#059669" stroke-width="3" stroke-linecap="round"/>
  <path d="M990 392H1020" stroke="#10B981" stroke-width="3" stroke-linecap="round"/>
  <path d="M972 448H1052" stroke="#94EBC0" stroke-width="8" stroke-linecap="round"/>
  <circle cx="1012" cy="380" r="8" fill="#34D399" stroke="#059669" stroke-width="2.5"/>
</svg>
