<svg width="104" height="104" viewBox="0 0 104 104" fill="none" xmlns="http://www.w3.org/2000/svg">
  <rect x="8" y="8" width="88" height="88" rx="24" fill="#FFF6E7" stroke="#FFD48B" stroke-width="2"/>
  <path d="M52 28C44.268 28 38 34.268 38 42V49.41C38 52.326 36.842 55.123 34.781 57.185L31 61H73L69.219 57.185C67.158 55.123 66 52.326 66 49.41V42C66 34.268 59.732 28 52 28Z" fill="white" stroke="#D97706" stroke-width="2.5" stroke-linejoin="round"/>
  <path d="M46 69C47.579 72.047 49.633 73.5 52 73.5C54.367 73.5 56.421 72.047 58 69" stroke="#D97706" stroke-width="3" stroke-linecap="round"/>
  <path d="M27 39C27 34.582 30.582 31 35 31" stroke="#F59E0B" stroke-width="3" stroke-linecap="round"/>
  <path d="M77 39C77 34.582 73.418 31 69 31" stroke="#F59E0B" stroke-width="3" stroke-linecap="round"/>
  <circle cx="71" cy="28" r="8" fill="#F59E0B"/>
  <path d="M71 24V32" stroke="white" stroke-width="2.5" stroke-linecap="round"/>
  <path d="M67 28H75" stroke="white" stroke-width="2.5" stroke-linecap="round"/>
</svg>
